<svg width="22" height="22" viewBox="0 0 22 22" fill="none" xmlns="http://www.w3.org/2000/svg">
<path fill-rule="evenodd" clip-rule="evenodd" d="M7.17156 5.05042C6.58578 4.46464 5.63603 4.46464 5.05024 5.05042C4.46445 5.63621 4.46445 6.58596 5.05024 7.17174L8.87847 11L5.05025 14.8282C4.46447 15.414 4.46447 16.3637 5.05026 16.9495C5.63604 17.5353 6.58579 17.5353 7.17158 16.9495L10.9998 13.1213L14.828 16.9495C15.4138 17.5353 16.3635 17.5353 16.9493 16.9495C17.5351 16.3637 17.5351 15.414 16.9493 14.8282L13.1211 11L16.9493 7.17174C17.5351 6.58596 17.5351 5.63621 16.9493 5.05042C16.3636 4.46464 15.4138 4.46464 14.828 5.05042L10.9998 8.87866L7.17156 5.05042Z" fill="#A3B3D0"/>
</svg>
